<?xml version="1.0" encoding="utf-8"?>
<!-- Generator: Adobe Illustrator 21.1.0, SVG Export Plug-In . SVG Version: 6.00 Build 0)  -->
<svg version="1.1"
	 id="svg2" xmlns:cc="http://creativecommons.org/ns#" xmlns:dc="http://purl.org/dc/elements/1.1/" xmlns:rdf="http://www.w3.org/1999/02/22-rdf-syntax-ns#" xmlns:svg="http://www.w3.org/2000/svg"
	 xmlns="http://www.w3.org/2000/svg" xmlns:xlink="http://www.w3.org/1999/xlink" x="0px" y="0px" viewBox="0 0 128 128"
	 style="enable-background:new 0 0 128 128;" xml:space="preserve">
<style type="text/css">
	.st0{fill:#225593;}
	.st1{fill:#FFFFFF;}
</style>
<rect id="rect4140" x="-0.5" y="0" class="st0" width="128.5" height="128"/>
<g>
	<path class="st1" d="M91.4,53c0.4-1.7,0.8-3.6,1.2-5.5c0.1-0.6,0.4-1.3,0.8-1.6c3-2.4,4.6-5.9,4.4-9.2c-0.3-5.8-3.4-11.4-10.5-12.1
		c-0.5,0-1.4-0.4-1.5-0.7c-0.6-3-2.4-4.9-4.8-6.7c-3.6-2.6-11.3-3.1-15-0.6c-1.3,0.9-2.8,2.2-4.4,0.7c-2.8-2.6-6.1-2.2-9.5-2.3
		c-4.9-0.1-10.3,3.9-11.5,8.3c-0.8,3-1.8,4-4.9,4.5c-7,1.2-11,8.2-9.3,15c0.7,3,2.1,6.2,5.6,7.4c0.6,0.2,1.3,0.8,1.4,1.4
		c0.6,2.6,1.1,5.2,1.4,7.8c0.8,5.9,1.3,11.9,2.1,17.8c0.8,5.9,1.6,11.9,2.5,17.8c0.7,5,1.5,10,2.4,15c0.1,0.4,0.4,0.9,0.7,1.1
		c2.1,1.2,4,2.9,6.3,3.5c7.9,2,15.9,1.8,24,0.6c5.4-0.9,8.6-3.6,9.4-8.1c0.1-0.6,0.1-1.2,0.1-1.8c0-1.2,0.5-1.5,1.7-1.4
		c2.3,0.2,4.6,0.4,6.8,0.3c2.2-0.1,4.3-0.9,5.1-3.2c0.8-2.3,1.5-4.8,1.9-7.2c0.8-4.5,1-9.1,2.1-13.5c1.4-5.6,1.6-11.3,1.6-17
		c-0.1-3.6-1.2-6.8-4.8-8.4C95.1,54,93.1,53.5,91.4,53z"/>
	<path d="M91.4,53c1.7,0.5,3.7,1,5.6,1.8c3.6,1.6,4.7,4.7,4.8,8.4c0.1,5.7-0.2,11.4-1.6,17c-1.1,4.4-1.3,9-2.1,13.5
		c-0.4,2.4-1.1,4.9-1.9,7.2c-0.8,2.3-2.8,3.1-5.1,3.2c-2.3,0.1-4.6-0.1-6.8-0.3c-1.2-0.1-1.7,0.2-1.7,1.4c0,0.6,0,1.2-0.1,1.8
		c-0.9,4.6-4.1,7.2-9.4,8.1c-8,1.3-16.1,1.4-24-0.6c-2.2-0.6-4.2-2.2-6.3-3.5c-0.3-0.2-0.6-0.7-0.7-1.1c-0.8-5-1.6-10-2.4-15
		c-0.9-5.9-1.7-11.9-2.5-17.8c-0.8-5.9-1.3-11.9-2.1-17.8c-0.3-2.6-0.8-5.2-1.4-7.8c-0.1-0.5-0.8-1.2-1.4-1.4
		c-3.6-1.2-4.9-4.4-5.6-7.4c-1.6-6.8,2.3-13.8,9.3-15c3.1-0.5,4.2-1.5,4.9-4.5c1.1-4.4,6.6-8.5,11.5-8.3c3.3,0.1,6.7-0.3,9.5,2.3
		c1.6,1.5,3.1,0.2,4.4-0.7c3.7-2.5,11.4-2,15,0.6c2.5,1.8,4.3,3.7,4.8,6.7c0.1,0.3,0.9,0.7,1.5,0.7c7.1,0.7,10.1,6.3,10.5,12.1
		c0.2,3.3-1.5,6.8-4.4,9.2c-0.4,0.4-0.7,1.1-0.8,1.6C92.2,49.4,91.8,51.2,91.4,53z M36.6,52.1c-0.2,0.1-0.4,0.1-0.5,0.2
		c0,0.4,0,0.9,0.1,1.3c0.8,5.7,1.7,11.4,2.5,17.1c1.3,9.9,2.7,19.8,4,29.6c0.3,2.3,0.5,4.7,0.8,7c0.2,1.7,0.9,2.9,2.6,3.6
		c3.4,1.4,6.9,2.7,10.6,2.9c6.9,0.5,13.7,0.3,20.2-2.4c2-0.8,3.5-2.1,3.8-4.3c1.3-9.6,2.6-19.3,4-28.9c0.8-5.7,1.7-11.4,2.6-17.1
		c0.3-1.8,0.4-3.6,0.6-5c-4.1,0.5-8.1,0.9-12.3,1.4c-1,5-5.5,6.6-9.9,7.4c-5,0.9-8.8-1.8-11.8-5.6c-3.6,1.8-7.1,2.3-10.8,0.8
		C39.1,58.9,38.2,55.3,36.6,52.1z M54.5,56.4c2,4.2,5,7.1,10.2,6.7c5-0.4,8.2-3,9.6-8c0.8,0.1,1.7,0.2,2.5,0.4
		c3.9,0.9,7.7,0.2,10.8-2.3c1.5-1.2,3.1-3.4,3.2-5.2c0.2-2.5,1.4-3.8,2.9-5.2c0.3-0.3,0.7-0.6,0.9-1c3.5-7.6,0-14.1-7.8-15.6
		c-1.4-0.3-2.1-0.5-2.4-2c-0.5-2.8-2.4-4.7-4.9-5.8c-5.7-2.5-11.2-2.1-16.1,2.3c-3.9-3.8-8.6-4.5-13.7-3.1
		c-5.8,1.5-7.9,5.6-7.3,11.4c-1.4,0-2.6,0-3.7,0c-3.4-0.1-6.3,1.7-8,4c-4.5,6-2.4,15.5,6.3,17.1c1.6,0.3,2.1,0.8,2.3,2.4
		c0.8,5.4,6.1,8.3,10.6,6.8C51.3,58.7,52.6,57.6,54.5,56.4z M88.6,62.4c0.8,0.1,1.3,0.2,1.7,0.2c3.1,0.5,3.9,1.3,3.8,4.4
		c-0.2,2.8-0.6,5.6-0.9,8.4C92.4,81,91.8,86.6,91,92.2c-0.3,2.2-1.6,3.7-4,3.4c-2.4-0.3-3.3,0.8-3.4,3c0,0.9-0.1,1.8-0.2,3.1
		c3,0,5.9,0.1,8.7,0c1.6-0.1,2.4-1.2,2.7-2.8c1.2-6.3,2.8-12.5,3.6-18.8c0.7-6.3,0.8-12.6,0.8-18.9c0-3.4-1.8-4.9-5.1-5.4
		c-1.5-0.2-3,0-4.7,0C89.2,57.8,88.9,60,88.6,62.4z M84.2,93.8c4,0.5,4.5,0.2,5-3c0.2-1.3,0.4-2.7,0.6-4.1
		c0.7-6.5,1.6-12.9,2.2-19.4c0.3-3.1-0.1-3.3-3.4-3C87,74.1,85.6,83.9,84.2,93.8z"/>
	<path class="st1" d="M36.6,52.1c1.6,3.2,2.5,6.8,6.2,8.3c3.7,1.5,7.2,1,10.8-0.8c3,3.8,6.8,6.5,11.8,5.6c4.5-0.8,8.9-2.4,9.9-7.4
		c4.2-0.5,8.2-0.9,12.3-1.4c-0.2,1.4-0.3,3.2-0.6,5c-0.8,5.7-1.8,11.4-2.6,17.1c-1.4,9.6-2.7,19.3-4,28.9c-0.3,2.3-1.8,3.5-3.8,4.3
		c-6.5,2.7-13.3,2.8-20.2,2.4c-3.8-0.3-7.2-1.5-10.6-2.9c-1.7-0.7-2.4-2-2.6-3.6c-0.3-2.3-0.5-4.7-0.8-7c-1.3-9.9-2.6-19.8-4-29.6
		c-0.8-5.7-1.6-11.4-2.5-17.1c-0.1-0.4,0-0.9-0.1-1.3C36.3,52.3,36.4,52.2,36.6,52.1z"/>
	<path class="st1" d="M54.5,56.4c-2,1.2-3.3,2.3-4.8,2.8c-4.5,1.6-9.7-1.4-10.6-6.8c-0.2-1.6-0.7-2.1-2.3-2.4
		c-8.7-1.6-10.7-11.1-6.3-17.1c1.8-2.4,4.6-4.2,8-4c1.1,0,2.3,0,3.7,0c-0.6-5.8,1.6-9.9,7.3-11.4c5.1-1.3,9.8-0.6,13.7,3.1
		c4.9-4.4,10.4-4.8,16.1-2.3c2.4,1.1,4.3,3,4.9,5.8c0.3,1.5,0.9,1.8,2.4,2c7.8,1.4,11.3,8,7.8,15.6c-0.2,0.4-0.6,0.7-0.9,1
		c-1.5,1.4-2.7,2.8-2.9,5.2c-0.1,1.8-1.7,3.9-3.2,5.2c-3.1,2.5-6.8,3.1-10.8,2.3c-0.8-0.2-1.6-0.2-2.5-0.4c-1.4,5-4.6,7.6-9.6,8
		C59.6,63.5,56.5,60.7,54.5,56.4z"/>
	<path class="st1" d="M88.6,62.4c0.3-2.4,0.6-4.5,0.9-6.8c1.7,0,3.3-0.2,4.7,0c3.3,0.5,5,2.1,5.1,5.4c0,6.3,0,12.7-0.8,18.9
		c-0.7,6.3-2.4,12.5-3.6,18.8c-0.3,1.7-1.2,2.8-2.7,2.8c-2.8,0.2-5.7,0-8.7,0c0.1-1.3,0.2-2.2,0.2-3.1c0-2.2,0.9-3.3,3.4-3
		c2.4,0.3,3.7-1.1,4-3.4c0.8-5.6,1.4-11.2,2.1-16.8c0.3-2.8,0.8-5.6,0.9-8.4c0.2-3.1-0.6-3.9-3.8-4.4C89.8,62.5,89.4,62.5,88.6,62.4
		z"/>
	<path class="st1" d="M84.2,93.8c1.4-9.9,2.9-19.7,4.3-29.5c3.3-0.3,3.7-0.1,3.4,3c-0.6,6.5-1.4,12.9-2.2,19.4
		c-0.2,1.4-0.3,2.7-0.6,4.1C88.6,94,88.2,94.3,84.2,93.8z"/>
</g>
</svg>
